<svg width="96" height="91" viewBox="0 0 96 91" fill="none" xmlns="http://www.w3.org/2000/svg">
<g filter="url(#filter0_d_201_29)">
<path d="M11.9355 46.6406C12.6165 47.0906 13.2865 47.5306 13.9565 47.9506C14.1165 48.0506 14.2765 48.1606 14.4465 48.2706C14.4615 48.2733 14.4754 48.2802 14.4865 48.2906L14.5465 48.3206C14.6938 48.4236 14.8474 48.5171 15.0065 48.6006C15.3065 48.8006 15.6165 48.9806 15.9255 49.1606C16.0612 49.251 16.2013 49.3345 16.3455 49.4106C16.6455 49.5906 16.9355 49.7606 17.2255 49.9306C17.4355 50.0506 17.6355 50.1706 17.8455 50.2806L18.4755 50.6406C20.6144 51.826 22.8178 52.891 25.0755 53.8306C25.4955 54.0006 25.9055 54.1706 26.3155 54.3206C26.8355 54.5206 27.3455 54.7106 27.8455 54.8806C28.8555 55.2306 29.8455 55.5406 30.8055 55.8006C30.8095 55.8044 30.8142 55.8072 30.8194 55.809C30.8246 55.8107 30.8301 55.8112 30.8355 55.8106C31.3055 55.9406 31.7755 56.0606 32.2355 56.1606C33.0555 56.3506 33.8455 56.5106 34.6255 56.6306C34.6512 56.6393 34.6785 56.6427 34.7055 56.6406C34.9055 56.6806 35.0955 56.7106 35.2955 56.7306C35.3144 56.7387 35.335 56.7422 35.3555 56.7406C35.6755 56.7906 35.9955 56.8306 36.3055 56.8606C37.1755 56.9606 38.0255 57.0106 38.8455 57.0306C40.0946 57.0614 41.3443 57.0045 42.5855 56.8606C57.2155 55.1406 64.0155 41.2106 66.9555 31.9906C66.9655 31.9506 66.9755 31.9206 66.9855 31.8806C66.9957 31.8549 67.0025 31.828 67.0055 31.8006C67.0055 31.7806 67.0155 31.7606 67.0155 31.7406H67.0255C67.0313 31.7245 67.0346 31.7076 67.0355 31.6906C67.2355 31.0606 67.4055 30.4606 67.5655 29.8806C67.6955 29.4306 67.8055 28.9906 67.9155 28.5806C72.3255 35.5906 73.5355 43.5306 73.4055 50.5206C73.4055 50.6906 73.3955 50.8506 73.3955 51.0106C73.3955 51.1706 73.3855 51.3406 73.3755 51.5006C73.3755 51.7406 73.3655 51.9806 73.3455 52.2106C73.3455 52.3506 73.3355 52.4906 73.3255 52.6306C73.3155 52.8106 73.3055 52.9806 73.2955 53.1506C73.2972 53.1842 73.2938 53.2179 73.2855 53.2506C73.2555 53.7839 73.2155 54.3039 73.1655 54.8106C73.1555 54.8606 73.1555 54.9106 73.1455 54.9506C73.1055 55.4006 73.0555 55.8506 73.0055 56.2906C72.9855 56.4506 72.9655 56.6006 72.9455 56.7506C72.9155 57.0106 72.8855 57.2606 72.8455 57.5106C72.8055 57.8106 72.7655 58.1006 72.7155 58.3906C72.6955 58.5706 72.6655 58.7406 72.6355 58.9106C72.5755 59.2606 72.5255 59.6006 72.4655 59.9406C72.4455 60.0606 72.4255 60.1706 72.4055 60.2806C72.394 60.3196 72.3873 60.3599 72.3855 60.4006C72.3455 60.5806 72.3155 60.7606 72.2755 60.9306C72.2255 61.2006 72.1755 61.4706 72.1155 61.7306C72.0555 61.9906 72.0055 62.2406 71.9555 62.4906C71.8755 62.8806 71.7855 63.2506 71.6955 63.6206C71.6655 63.7606 71.6355 63.9006 71.5955 64.0306C71.4355 64.6906 71.2755 65.2906 71.1255 65.8406C71.1182 65.8855 71.1047 65.9293 71.0855 65.9706C71.0555 66.0806 71.0255 66.1906 70.9955 66.2906C70.9655 66.3906 70.9455 66.4906 70.9155 66.5906C70.903 66.6154 70.8962 66.6428 70.8955 66.6706C70.8055 66.9506 70.7255 67.2106 70.6555 67.4506C70.6455 67.4806 70.6355 67.5206 70.6255 67.5506C70.5955 67.6506 70.5655 67.7406 70.5355 67.8206C70.5055 67.9106 70.4755 68.0006 70.4555 68.0806C70.4355 68.1606 70.4155 68.2106 70.3955 68.2706C70.3755 68.3306 70.3555 68.3906 70.3355 68.4506C70.3345 68.4582 70.3309 68.4652 70.3255 68.4706C70.2955 68.5606 70.2755 68.6306 70.2455 68.7006C70.2155 68.7706 70.1955 68.8506 70.1755 68.9106C70.1055 69.1006 70.0655 69.2206 70.0455 69.2706C70.0398 69.2758 70.0363 69.2829 70.0355 69.2906C69.6755 69.9106 69.2955 70.5106 68.8955 71.0906L68.8755 71.1106C65.028 76.6481 59.183 80.4779 52.5699 81.7945C45.9567 83.1112 39.0906 81.8122 33.4155 78.1706C33.3937 78.1603 33.3735 78.1468 33.3555 78.1306C29.9117 75.8896 27.0525 72.8589 25.0155 69.2906L16.4465 54.4406L11.9355 46.6406Z" fill="url(#paint0_linear_201_29)"/>
<path d="M9.60589 9.92046C10.1669 9.88046 10.7369 9.85045 11.2869 9.82045C11.5159 9.80045 11.7369 9.79046 11.9569 9.78046C11.9659 9.77046 11.9659 9.77046 11.9759 9.78046C12.0123 9.77217 12.0496 9.7688 12.0869 9.77045C12.1566 9.76211 12.2267 9.75878 12.2969 9.76046C12.3464 9.75208 12.3967 9.74872 12.4469 9.75045C12.9359 9.72045 13.4259 9.70045 13.9069 9.69045C13.9595 9.68242 14.0127 9.67908 14.0659 9.68045C14.7369 9.65045 15.4069 9.63045 16.0659 9.61045C16.6269 9.59045 17.1859 9.58045 17.7369 9.57045C18.0959 9.56045 18.4569 9.56046 18.8159 9.56046C24.2935 9.48376 29.7691 9.82138 35.1959 10.5705C35.1059 10.6605 35.0059 10.7405 34.9159 10.8405H34.9059C34.7659 10.9705 34.6359 11.0905 34.5059 11.2205C34.2759 11.4405 34.0559 11.6505 33.8459 11.8605C33.8378 11.8694 33.831 11.8795 33.8259 11.8905C15.0869 30.5205 27.1559 46.8405 37.0059 55.4605C37.0198 55.4797 37.0367 55.4965 37.0559 55.5105C37.0659 55.5305 37.0759 55.5305 37.0859 55.5405C37.0959 55.5505 37.0859 55.5505 37.0959 55.5605L37.1059 55.5705C37.2859 55.7205 37.4559 55.8805 37.6359 56.0205C38.0459 56.3705 38.4459 56.7105 38.8459 57.0305C38.0259 57.0105 37.1759 56.9605 36.3059 56.8605C35.9959 56.8305 35.6759 56.7905 35.3559 56.7405C35.3353 56.742 35.3148 56.7386 35.2959 56.7305C35.0959 56.7105 34.9059 56.6805 34.7059 56.6405C34.6788 56.6426 34.6516 56.6392 34.6259 56.6305C33.8459 56.5105 33.0559 56.3505 32.2359 56.1605C31.7759 56.0505 31.3059 55.9405 30.8359 55.8105C30.8304 55.8111 30.8249 55.8106 30.8197 55.8088C30.8146 55.8071 30.8098 55.8042 30.8059 55.8005C29.8459 55.5405 28.8559 55.2405 27.8459 54.8805C27.3459 54.7105 26.8359 54.5205 26.3159 54.3205C25.9059 54.1705 25.4959 54.0005 25.0759 53.8305C22.8182 52.8909 20.6147 51.8259 18.4759 50.6405L17.8459 50.2805C17.6359 50.1705 17.4359 50.0505 17.2259 49.9305C16.9359 49.7605 16.6459 49.5905 16.3459 49.4105C16.2017 49.3344 16.0615 49.2509 15.9259 49.1605C15.6169 48.9805 15.3059 48.8005 15.0069 48.6005C14.8478 48.517 14.6941 48.4234 14.5469 48.3205L14.4869 48.2905C14.4757 48.2801 14.4618 48.2731 14.4469 48.2705C14.2769 48.1605 14.1169 48.0505 13.9569 47.9505C13.2869 47.5305 12.6169 47.0905 11.9359 46.6405L10.5159 44.1805C10.5159 44.1805 10.5159 44.1705 10.4969 44.1605C10.498 44.1524 10.4965 44.1443 10.4928 44.1371C10.489 44.1299 10.4831 44.1241 10.4759 44.1205L7.51589 39.0005C4.89582 34.5064 3.69357 29.3261 4.06648 24.1374C4.43939 18.9488 6.37009 13.9936 9.60589 9.92046Z" fill="url(#paint1_linear_201_29)"/>
<path d="M9.60547 9.92054C12.0211 6.80999 15.1203 4.29726 18.6631 2.57702C22.2059 0.856771 26.0972 -0.0248147 30.0354 0.000531451H65.0154C68.6038 -0.016192 72.1562 0.716084 75.4454 2.15053C75.4531 2.15126 75.4603 2.15482 75.4654 2.16053C75.4794 2.16011 75.4933 2.16358 75.5054 2.17054C78.8462 3.64992 81.8382 5.81569 84.2871 8.52712C86.736 11.2386 88.587 14.4349 89.7197 17.9086C90.8524 21.3822 91.2416 25.0553 90.8618 28.6891C90.482 32.3229 89.3419 35.8362 87.5154 39.0005L86.2955 41.1305C86.2455 41.2005 86.2154 41.2405 86.2154 41.2405L79.6554 52.6105L70.0454 69.2705C70.0654 69.2205 70.1054 69.1005 70.1754 68.9105C70.1954 68.8505 70.2254 68.7806 70.2454 68.7006C70.2654 68.6205 70.2954 68.5605 70.3254 68.4705C70.3309 68.4651 70.3344 68.4581 70.3354 68.4506C70.3554 68.3906 70.3754 68.3405 70.3954 68.2705C70.4154 68.2005 70.4354 68.1505 70.4554 68.0805C70.4754 68.0105 70.5054 67.9105 70.5354 67.8205C70.5654 67.7305 70.5954 67.6505 70.6254 67.5505C70.6354 67.5205 70.6454 67.4805 70.6554 67.4506C70.7254 67.2106 70.8054 66.9506 70.8954 66.6706C70.8961 66.6427 70.9029 66.6154 70.9154 66.5905C70.9454 66.4906 70.9754 66.3905 70.9954 66.2905C71.0154 66.1905 71.0554 66.0805 71.0854 65.9705C71.1046 65.9292 71.1181 65.8855 71.1254 65.8405C71.2754 65.2905 71.4354 64.6906 71.5954 64.0306C71.6354 63.9006 71.6654 63.7605 71.6954 63.6205C71.7854 63.2505 71.8754 62.8805 71.9554 62.4905C72.0054 62.2405 72.0654 61.9905 72.1154 61.7305C72.1654 61.4705 72.2254 61.2005 72.2754 60.9305C72.3154 60.7605 72.3454 60.5805 72.3854 60.4005C72.3872 60.3599 72.3939 60.3196 72.4054 60.2805C72.4254 60.1705 72.4454 60.0605 72.4654 59.9405C72.5254 59.6005 72.5754 59.2605 72.6354 58.9105C72.6654 58.7405 72.6954 58.5705 72.7154 58.3905C72.7654 58.1005 72.8054 57.8105 72.8454 57.5105C72.8854 57.2605 72.9154 57.0105 72.9454 56.7505C72.9654 56.6005 72.9854 56.4505 73.0054 56.2905L73.1254 55.2405C73.1254 55.1505 73.1354 55.0505 73.1454 54.9505C73.1554 54.9105 73.1554 54.8605 73.1654 54.8105C73.2154 54.3005 73.2554 53.7805 73.2854 53.2505C73.2937 53.2179 73.2971 53.1842 73.2954 53.1505C73.3054 52.9805 73.3154 52.8105 73.3254 52.6305C73.3354 52.4905 73.3454 52.3505 73.3454 52.2105C73.3654 51.9805 73.3754 51.7405 73.3754 51.5005C73.3854 51.3405 73.3954 51.1705 73.3954 51.0105C73.3954 50.8505 73.4054 50.6905 73.4054 50.5205C73.5354 43.5305 72.3254 35.5905 67.9154 28.5805C67.7154 28.2605 67.5054 27.9405 67.2954 27.6305C67.2656 27.5963 67.2388 27.5595 67.2154 27.5205C67.1754 27.4705 67.1554 27.4405 67.1554 27.4405C61.7154 19.5505 51.9854 13.0005 35.1954 10.5705C29.7687 9.82146 24.2931 9.48384 18.8154 9.56054C18.4564 9.56054 18.0954 9.56053 17.7364 9.57053C17.1854 9.58053 16.6264 9.59053 16.0654 9.61053C15.4064 9.63053 14.7364 9.65053 14.0654 9.68053C14.0123 9.67916 13.9591 9.6825 13.9065 9.69053C13.4255 9.70053 12.9355 9.72053 12.4465 9.75053C12.3963 9.7488 12.346 9.75216 12.2965 9.76054C12.2263 9.75886 12.1561 9.76219 12.0865 9.77053C12.0492 9.76888 12.0119 9.77225 11.9755 9.78054C11.9655 9.77054 11.9655 9.77054 11.9565 9.78054C11.7365 9.79054 11.5155 9.80053 11.2865 9.82053C10.7365 9.85053 10.1665 9.88054 9.60547 9.92054Z" fill="url(#paint2_linear_201_29)"/>
<g style="mix-blend-mode:multiply" opacity="0.25">
<path d="M67.0059 31.8004C67.0059 31.7804 67.0159 31.7604 67.0159 31.7404C67.0215 31.7234 67.0282 31.7067 67.0359 31.6904C67.0351 31.7075 67.0317 31.7244 67.0259 31.7404C67.0159 31.7504 67.0159 31.7704 67.0059 31.8004Z" fill="black"/>
</g>
<g style="mix-blend-mode:multiply" opacity="0.25">
<path d="M14.4873 48.2905L14.5473 48.3205C14.8273 48.4605 15.6973 48.9005 17.0273 49.5805C18.6463 50.4305 21.0273 51.5505 23.9163 52.7105C25.3663 53.2905 26.9563 53.8405 28.6563 54.3705C30.4318 54.9046 32.2386 55.3288 34.0663 55.6405C35.2476 55.8389 36.4397 55.9658 37.6363 56.0205C38.0463 56.3705 38.4463 56.7105 38.8463 57.0305C40.0954 57.0613 41.3451 57.0044 42.5863 56.8605C57.2163 55.1405 64.0163 41.2105 66.9563 31.9905C66.9263 32.1005 66.8863 32.2505 66.8463 32.4305C66.7263 32.9005 66.5663 33.6105 66.2863 34.4905C66.0263 35.3805 65.6563 36.4405 65.2263 37.6505C64.9863 38.2505 64.7363 38.8905 64.4663 39.5705C64.1663 40.2305 63.8463 40.9205 63.5163 41.6405C63.1363 42.3505 62.7763 43.0905 62.3463 43.8405C61.8863 44.5805 61.4663 45.3605 60.9263 46.1105C60.4036 46.8998 59.8395 47.6609 59.2363 48.3905C58.9363 48.7705 58.6263 49.1605 58.2963 49.5305C57.9663 49.9005 57.6063 50.2505 57.2563 50.6105C56.5312 51.3479 55.7667 52.0456 54.9663 52.7005C54.1323 53.3603 53.2608 53.9713 52.3563 54.5305C51.4299 55.0929 50.4641 55.5876 49.4663 56.0105C48.9663 56.2105 48.4763 56.4505 47.9563 56.6305L46.3463 57.1105L45.5463 57.3405C45.2763 57.4105 45.0263 57.4405 44.7663 57.4905L43.2163 57.7505C42.1374 57.9156 41.0477 57.9991 39.9563 58.0005C38.7865 58.0101 37.6174 57.9433 36.4563 57.8005H36.4363C35.5263 57.6905 34.6263 57.5405 33.7463 57.3705C31.8554 56.982 29.9967 56.4505 28.1863 55.7805C26.573 55.1926 24.9938 54.5149 23.4563 53.7505C22.0163 53.0605 20.7563 52.3405 19.6463 51.6905C18.5463 51.0205 17.5963 50.4305 16.8273 49.9205C16.0473 49.4305 15.4763 48.9805 15.0663 48.7005C14.7663 48.4905 14.5663 48.3505 14.4873 48.2905Z" fill="black"/>
</g>
<g style="mix-blend-mode:multiply" opacity="0.25">
<path d="M23.1808 29.5506C23.3703 27.9659 23.7324 26.4066 24.2608 24.9006C24.7488 23.5067 25.3648 22.161 26.1008 20.8806C26.4408 20.2606 26.8008 19.6906 27.1708 19.1506C27.5208 18.5906 27.9008 18.0906 28.2708 17.6106C28.9808 16.6206 29.7508 15.8206 30.3908 15.0806C31.0808 14.3806 31.6808 13.7806 32.2008 13.3006C33.2508 12.3906 33.8508 11.8606 33.8508 11.8606C33.8427 11.8696 33.836 11.8797 33.8308 11.8906C15.0918 30.5206 27.1608 46.8406 37.0108 55.4606C37.0247 55.4798 37.0416 55.4967 37.0608 55.5106C37.0708 55.5306 37.0808 55.5306 37.0908 55.5406C37.1008 55.5506 37.0908 55.5506 37.1008 55.5606C37.0508 55.5306 36.9008 55.4106 36.6508 55.2306C36.3508 55.0106 35.9008 54.6906 35.3608 54.2506C33.8472 53.035 32.4204 51.7151 31.0908 50.3006C30.1986 49.3519 29.3606 48.3537 28.5808 47.3106C27.6907 46.1452 26.8884 44.9151 26.1808 43.6306C25.4064 42.2479 24.7572 40.7989 24.2408 39.3006C23.7238 37.736 23.3587 36.1252 23.1508 34.4906C22.9767 32.848 22.9867 31.191 23.1808 29.5506Z" fill="black"/>
</g>
<g style="mix-blend-mode:multiply" opacity="0.25">
<path d="M19.4966 9.87064C16.9966 9.79064 14.4866 9.78064 11.9756 9.78064C12.012 9.77235 12.0493 9.76898 12.0866 9.77063C14.5555 9.50063 17.0156 9.34063 19.4966 9.24063C22.0266 9.15063 24.5655 9.11064 27.1055 9.20064C29.6455 9.29064 32.1856 9.45063 34.7056 9.76063C35.9756 9.91063 37.2355 10.1106 38.4955 10.3006C39.7455 10.5506 41.0156 10.7306 42.2556 11.0506L44.1256 11.4906L45.9756 12.0206C47.2056 12.3606 48.4255 12.8006 49.6355 13.2206C50.8355 13.6806 52.0255 14.1706 53.1955 14.7206C53.7855 14.9806 54.3556 15.2906 54.9256 15.5906C55.4956 15.8906 56.0756 16.1806 56.6256 16.5206C57.7455 17.1606 58.8255 17.8906 59.8855 18.6306C60.3955 19.0306 60.9256 19.4106 61.4256 19.8206L62.9055 21.0906L64.3055 22.4506L65.6256 23.8906L66.8756 25.4206L67.9655 26.9206L68.0155 26.9906L68.0255 27.0006L68.7056 28.0406L69.3355 29.1706C69.769 29.9076 70.1596 30.6688 70.5056 31.4506C70.8456 32.2306 71.2255 32.9906 71.5155 33.8006L71.6955 34.3206C71.7055 34.3206 71.7056 34.3306 71.7056 34.3406L72.3456 36.2106L72.9856 38.6706C73.1755 39.5006 73.3055 40.3406 73.4655 41.1706C73.6255 42.0006 73.6756 42.8506 73.7856 43.6806C73.8956 44.5106 73.9156 45.3706 73.9756 46.2106C74.0356 47.0506 74.0155 47.8906 74.0155 48.7306C74.0155 49.5706 73.9756 50.4106 73.9256 51.2506C73.844 52.926 73.6671 54.5954 73.3956 56.2506C73.2956 57.0806 73.1156 57.8906 72.9756 58.7206C72.8356 59.5506 72.6256 60.3506 72.4556 61.1606C72.2456 61.9706 72.0755 62.7906 71.8255 63.5806C71.6055 64.3506 71.3756 65.0906 71.1256 65.8406C71.1182 65.8856 71.1047 65.9293 71.0855 65.9706C71.8281 62.7378 72.3394 59.4562 72.6156 56.1506C72.6756 55.3306 72.7455 54.5106 72.7655 53.6806C72.7855 52.8506 72.8455 52.0406 72.8255 51.2106C72.8255 50.3906 72.8355 49.5706 72.7755 48.7506C72.7355 47.9306 72.7156 47.1106 72.6156 46.3006C72.5156 45.4906 72.4956 44.6606 72.3456 43.8606C72.1955 43.0606 72.1255 42.2406 71.9355 41.4406C71.7455 40.6406 71.6056 39.8506 71.3956 39.0606L70.7155 36.7206L69.8656 34.4406C69.5756 33.6906 69.1956 32.9706 68.8656 32.2406C68.5184 31.5098 68.1312 30.7987 67.7056 30.1106L67.5656 29.8806C67.6956 29.4306 67.8055 28.9906 67.9155 28.5806C67.6955 28.2206 67.4555 27.8706 67.2155 27.5206C67.1755 27.4706 67.1555 27.4406 67.1555 27.4406C61.7156 19.5506 51.9855 13.0006 35.1955 10.5706C35.1055 10.6606 35.0055 10.7406 34.9155 10.8406H34.9055C34.7655 10.9706 34.6356 11.0906 34.5056 11.2206C34.0856 11.1506 33.6655 11.0906 33.2455 11.0306C31.1855 10.7306 29.1156 10.494 27.0356 10.3206C24.5256 10.1206 22.0156 9.94064 19.4966 9.87064Z" fill="black"/>
</g>
<g style="mix-blend-mode:multiply" opacity="0.15">
<path d="M67.2158 27.5205C68.8443 29.6952 70.3403 31.966 71.6958 34.3205C71.7058 34.3205 71.7058 34.3305 71.7058 34.3405C75.0877 40.0852 77.7573 46.2203 79.6558 52.6105L70.0458 69.2705C70.0658 69.2205 70.1058 69.1005 70.1758 68.9105C70.1958 68.8505 70.2258 68.7805 70.2458 68.7005C70.2658 68.6205 70.2958 68.5605 70.3258 68.4705C70.3312 68.4651 70.3347 68.4581 70.3358 68.4505C70.3558 68.3905 70.3758 68.3405 70.3958 68.2705C70.4158 68.2005 70.4358 68.1505 70.4558 68.0805C70.4758 68.0105 70.5058 67.9105 70.5358 67.8205C70.5658 67.7305 70.5958 67.6505 70.6258 67.5505C70.6358 67.5205 70.6458 67.4805 70.6558 67.4505C70.7258 67.2105 70.8058 66.9505 70.8958 66.6705C70.8965 66.6427 70.9033 66.6154 70.9158 66.5905C70.9458 66.4905 70.9758 66.3905 70.9958 66.2905C71.0158 66.1905 71.0558 66.0805 71.0858 65.9705C71.105 65.9292 71.1184 65.8855 71.1258 65.8405C71.2758 65.2905 71.4358 64.6905 71.5958 64.0305C71.6358 63.9005 71.6658 63.7605 71.6958 63.6205C71.7858 63.2505 71.8758 62.8805 71.9558 62.4905C72.0658 61.9905 72.1758 61.4705 72.2758 60.9305C72.3158 60.7605 72.3458 60.5805 72.3858 60.4005C72.3875 60.3599 72.3943 60.3196 72.4058 60.2805C72.4258 60.1705 72.4458 60.0605 72.4658 59.9405C72.5258 59.6105 72.5858 59.2605 72.6358 58.9105C72.6658 58.7405 72.6958 58.5705 72.7158 58.3905C72.7658 58.1005 72.8058 57.8105 72.8458 57.5105C72.8858 57.2605 72.9158 57.0105 72.9458 56.7505C72.9658 56.6005 72.9858 56.4505 73.0058 56.2905L73.1258 55.2405C73.1358 55.0905 73.1458 54.9505 73.1658 54.8105C73.2158 54.3005 73.2558 53.7805 73.2858 53.2505C73.2941 53.2179 73.2974 53.1842 73.2958 53.1505C73.3058 52.9805 73.3158 52.8105 73.3258 52.6305C73.3358 52.4905 73.3458 52.3505 73.3458 52.2105C73.3658 51.9805 73.3758 51.7405 73.3758 51.5005C73.3858 51.3405 73.3958 51.1705 73.3958 51.0105C73.3958 50.8505 73.4058 50.6905 73.4058 50.5205C73.5358 43.5305 72.3258 35.5905 67.9158 28.5805C67.6958 28.2205 67.4558 27.8705 67.2158 27.5205Z" fill="black"/>
</g>
<g style="mix-blend-mode:multiply" opacity="0.15">
<path d="M9.60582 9.92046C10.1668 9.88046 10.7368 9.85045 11.2868 9.82045C11.5158 9.80045 11.7368 9.79046 11.9568 9.78046C11.9658 9.77046 11.9658 9.77046 11.9758 9.78046C12.0122 9.77217 12.0495 9.7688 12.0868 9.77045C12.1565 9.76211 12.2267 9.75878 12.2968 9.76046C12.3464 9.75208 12.3966 9.74872 12.4468 9.75045C12.9358 9.72045 13.4258 9.70045 13.9068 9.69045C13.9594 9.68242 14.0126 9.67908 14.0658 9.68045C14.7368 9.65045 15.4068 9.63045 16.0658 9.61045C16.6268 9.59045 17.1858 9.58045 17.7368 9.57045C18.0958 9.56045 18.4568 9.56046 18.8158 9.56046C24.2935 9.48376 29.7691 9.82138 35.1958 10.5705C35.1058 10.6605 35.0058 10.7405 34.9158 10.8405H34.9058C34.4458 10.8805 33.8858 10.9505 33.2458 11.0305C27.1958 11.8705 13.5658 15.0905 4.95682 27.5205C4.67582 27.9105 4.40683 28.3205 4.14583 28.7305C3.45499 21.9894 5.413 15.2439 9.60582 9.92046Z" fill="black"/>
</g>
<g style="mix-blend-mode:multiply" opacity="0.15">
<path d="M11.9355 46.6406C12.6165 47.0906 13.2865 47.5306 13.9565 47.9506C14.1165 48.0506 14.2765 48.1606 14.4465 48.2706C14.4615 48.2733 14.4754 48.2803 14.4865 48.2906L14.5465 48.3206C14.6938 48.4236 14.8474 48.5171 15.0065 48.6006C15.3065 48.8006 15.6165 48.9806 15.9255 49.1606C16.0612 49.2511 16.2013 49.3345 16.3455 49.4106C16.6455 49.5906 16.9355 49.7606 17.2255 49.9306C17.4355 50.0506 17.6355 50.1707 17.8455 50.2807L18.4755 50.6406C20.6144 51.8261 22.8178 52.8911 25.0755 53.8306C25.4955 54.0006 25.9055 54.1706 26.3155 54.3206C26.8355 54.5206 27.3455 54.7106 27.8455 54.8806C28.8555 55.2406 29.8455 55.5406 30.8055 55.8006C30.8095 55.8044 30.8142 55.8073 30.8194 55.809C30.8246 55.8107 30.8301 55.8113 30.8355 55.8107C31.3055 55.9407 31.7755 56.0606 32.2355 56.1606C33.0555 56.3506 33.8455 56.5106 34.6255 56.6306C34.6512 56.6394 34.6785 56.6428 34.7055 56.6406C34.9055 56.6806 35.0955 56.7106 35.2955 56.7306C35.3144 56.7388 35.335 56.7422 35.3555 56.7406C35.6755 56.7906 35.9955 56.8306 36.3055 56.8606C37.1755 56.9606 38.0255 57.0107 38.8455 57.0307C40.0946 57.0614 41.3443 57.0046 42.5855 56.8606L42.6755 57.0307C40.625 57.4465 38.5455 57.7039 36.4555 57.8006H36.4355C29.601 58.2687 22.7524 57.1175 16.4465 54.4406L11.9355 46.6406Z" fill="black"/>
</g>
<g style="mix-blend-mode:overlay" opacity="0.6">
<path d="M67.0059 31.8004C67.0059 31.7804 67.0159 31.7604 67.0159 31.7404C67.0215 31.7234 67.0282 31.7067 67.0359 31.6904C67.0351 31.7075 67.0317 31.7244 67.0259 31.7404C67.0159 31.7504 67.0159 31.7704 67.0059 31.8004Z" fill="white"/>
</g>
<g style="mix-blend-mode:multiply" opacity="0.25">
<path d="M9.60588 9.92054C12.0215 6.80999 15.1207 4.29726 18.6635 2.57702C22.2063 0.856771 26.0976 -0.0248147 30.0359 0.000531451H53.5659C53.5659 0.000531451 48.3158 0.42053 40.4458 0.71053C38.4758 0.79053 36.3358 0.880531 34.0858 0.930531C31.8458 1.02053 29.3959 0.980533 27.1159 1.26054C24.7201 1.5898 22.3815 2.2494 20.1668 3.22053C17.8874 4.22498 15.7761 5.57409 13.9069 7.22053C12.9647 8.01498 12.0885 8.8845 11.2869 9.82053C10.4641 10.7709 9.71204 11.7802 9.03688 12.8405C7.73363 14.8818 6.71713 17.0925 6.01588 19.4105C5.37235 21.5923 5.00943 23.8471 4.93588 26.1205C4.93588 26.5905 4.93587 27.0605 4.95687 27.5205C4.96587 28.1205 4.99688 28.7105 5.05688 29.3005C5.14759 30.2855 5.29821 31.2639 5.50788 32.2305C5.8851 33.9444 6.42419 35.6186 7.11788 37.2305C7.74788 38.6605 8.41787 39.9005 8.91787 40.9305C9.79787 42.7205 10.3569 43.8505 10.4769 44.1205L7.51687 39.0005C4.8968 34.5065 3.69454 29.3262 4.06745 24.1375C4.44036 18.9489 6.37108 13.9937 9.60688 9.92054H9.60588Z" fill="black"/>
</g>
<g style="mix-blend-mode:multiply" opacity="0.25">
<path d="M75.4658 2.16044C75.4798 2.16002 75.4936 2.16349 75.5058 2.17045C78.8465 3.64983 81.8386 5.8156 84.2875 8.52703C86.7364 11.2385 88.5873 14.4349 89.7201 17.9085C90.8528 21.3821 91.2419 25.0552 90.8622 28.689C90.4824 32.3228 89.3422 35.8361 87.5158 39.0004L86.2958 41.1304C86.2458 41.2004 86.2158 41.2404 86.2158 41.2404C86.2158 41.2404 86.4958 40.5605 87.0058 39.4005C87.2758 38.8205 87.5058 38.1105 87.8558 37.2805C88.0158 36.8705 88.2058 36.4304 88.3658 35.9704C88.4958 35.5104 88.6358 35.0204 88.7858 34.5204C89.1013 33.437 89.3484 32.3348 89.5258 31.2204C89.6414 30.6163 89.7149 30.0048 89.7458 29.3904C89.825 28.7601 89.8684 28.1257 89.8758 27.4904C89.8758 26.8404 89.8658 26.1805 89.8658 25.5105C89.8058 24.8505 89.7358 24.1804 89.6758 23.5004C89.6105 22.8206 89.5003 22.1458 89.3458 21.4805L89.1458 20.4604C89.0758 20.1304 88.9558 19.8004 88.8558 19.4704C88.6458 18.8204 88.5258 18.1304 88.2558 17.5004C88.0058 16.8604 87.7558 16.2205 87.5058 15.5905C86.9389 14.3825 86.3045 13.2073 85.6058 12.0704C85.2829 11.5185 84.9255 10.9874 84.5358 10.4805C84.1558 9.97044 83.7858 9.48043 83.4358 9.00043C83.0258 8.55043 82.6358 8.12044 82.2558 7.70044C82.0658 7.48044 81.8858 7.26044 81.6958 7.07044C81.5058 6.88044 81.3058 6.70044 81.1058 6.52044C80.7258 6.15044 80.3458 5.81044 79.9958 5.48044C79.6545 5.172 79.2974 4.88159 78.9258 4.61043C78.3491 4.12583 77.7447 3.67508 77.1158 3.26044C76.1658 2.64044 75.5808 2.24044 75.4658 2.16044Z" fill="black"/>
</g>
<g style="mix-blend-mode:overlay" opacity="0.6">
<path d="M33.3554 78.1306C33.3554 78.1306 33.9454 78.3506 34.9654 78.7806C35.5677 79.042 36.1855 79.2657 36.8154 79.4506C37.1654 79.5706 37.5454 79.7006 37.9354 79.8306C38.3454 79.9306 38.7654 80.0406 39.2154 80.1606C40.0954 80.4106 41.0754 80.5606 42.0954 80.7406C42.6164 80.8451 43.1446 80.9086 43.6754 80.9306C44.2254 80.9606 44.7654 81.0706 45.3354 81.0806C45.9054 81.0906 46.4654 81.0906 47.0454 81.1006C47.6254 81.1106 48.2054 81.0306 48.7954 81.0206L49.6754 80.9706L50.5554 80.8406C51.1454 80.7406 51.7454 80.7006 52.3254 80.5606L54.0654 80.1806C54.6454 80.0506 55.1954 79.8306 55.7654 79.6606C56.3244 79.4999 56.8722 79.3028 57.4054 79.0706C57.9354 78.8506 58.4854 78.6706 58.9854 78.4206C59.9654 77.8806 60.9854 77.4606 61.8354 76.8706C62.2754 76.5906 62.7154 76.3406 63.1254 76.0606C63.5354 75.7806 63.9054 75.4906 64.2754 75.2306C64.9536 74.7362 65.6046 74.2054 66.2254 73.6406C66.5054 73.3906 66.7754 73.1606 67.0254 72.9506C67.2554 72.7206 67.4654 72.5006 67.6554 72.3106C68.3254 71.6306 68.7754 71.2106 68.8754 71.1106C65.0279 76.6481 59.1829 80.4779 52.5698 81.7946C45.9566 83.1112 39.0905 81.8122 33.4154 78.1706C33.3936 78.1603 33.3734 78.1468 33.3554 78.1306Z" fill="white"/>
</g>
</g>
<defs>
<filter id="filter0_d_201_29" x="0" y="0" width="95.0032" height="90.2961" filterUnits="userSpaceOnUse" color-interpolation-filters="sRGB">
<feFlood flood-opacity="0" result="BackgroundImageFix"/>
<feColorMatrix in="SourceAlpha" type="matrix" values="0 0 0 0 0 0 0 0 0 0 0 0 0 0 0 0 0 0 127 0" result="hardAlpha"/>
<feOffset dy="4"/>
<feGaussianBlur stdDeviation="2"/>
<feComposite in2="hardAlpha" operator="out"/>
<feColorMatrix type="matrix" values="0 0 0 0 0 0 0 0 0 0 0 0 0 0 0 0 0 0 0.25 0"/>
<feBlend mode="normal" in2="BackgroundImageFix" result="effect1_dropShadow_201_29"/>
<feBlend mode="normal" in="SourceGraphic" in2="effect1_dropShadow_201_29" result="shape"/>
</filter>
<linearGradient id="paint0_linear_201_29" x1="-638.699" y1="878.09" x2="-577.22" y2="878.09" gradientUnits="userSpaceOnUse">
<stop stop-color="#FCFC53"/>
<stop offset="1" stop-color="#F8A700"/>
</linearGradient>
<linearGradient id="paint1_linear_201_29" x1="-606.744" y1="876.5" x2="-563.849" y2="913.168" gradientUnits="userSpaceOnUse">
<stop stop-color="#00F3FF"/>
<stop offset="0.238" stop-color="#00EFFC"/>
<stop offset="0.44" stop-color="#00E5F4"/>
<stop offset="0.629" stop-color="#00D3E7"/>
<stop offset="0.81" stop-color="#00BAD4"/>
<stop offset="0.983" stop-color="#009BBC"/>
<stop offset="1" stop-color="#0098BA"/>
</linearGradient>
<linearGradient id="paint2_linear_201_29" x1="-656.063" y1="898.646" x2="-574.665" y2="898.646" gradientUnits="userSpaceOnUse">
<stop stop-color="#F80300"/>
<stop offset="0.033" stop-color="#F81000"/>
<stop offset="0.158" stop-color="#F93F00"/>
<stop offset="0.288" stop-color="#FA6800"/>
<stop offset="0.419" stop-color="#FA8900"/>
<stop offset="0.554" stop-color="#FBA300"/>
<stop offset="0.693" stop-color="#FBB500"/>
<stop offset="0.838" stop-color="#FBC000"/>
<stop offset="1" stop-color="#FCC400"/>
</linearGradient>
</defs>
</svg>
